<mxfile host="app.diagrams.net" modified="2024-06-19T06:53:01.656Z" agent="Mozilla/5.0 (X11; Linux x86_64) AppleWebKit/537.36 (KHTML, like Gecko) Chrome/108.0.0.0 Safari/537.36" version="24.3.1" etag="tz6PMCfqEJalpBrnLAa0" type="github">
  <diagram name="第 1 页" id="JO7EU80fTqNWtS1cuPq3">
    <mxGraphModel>
      <root>
        <mxCell id="0" />
        <mxCell id="1" parent="0" />
      </root>
    </mxGraphModel>
  </diagram>
</mxfile>
